<?xml version="1.0" encoding="UTF-8"?>
<svg version="1.1" xmlns="http://www.w3.org/2000/svg" width="364" height="389">
<path d="M0 0 C0.7734375 -0.020625 1.546875 -0.04125 2.34375 -0.0625 C9.12977537 -0.10804379 14.71791421 1.06319863 20 5.625 C20.7425 6.49125 21.485 7.3575 22.25 8.25 C22.95125 8.9925 23.6525 9.735 24.375 10.5 C26.25 13.25 26.25 13.25 27.38671875 16.90625 C28.84827755 21.44294318 30.7695533 25.66329957 32.82421875 29.953125 C33.15437988 30.64351868 33.48454102 31.33391235 33.82470703 32.04522705 C35.21080608 34.93235338 36.60441644 37.81572142 38.00610352 40.6953125 C39.03724713 42.81896883 40.05636753 44.94807308 41.07421875 47.078125 C41.39291428 47.72404602 41.7116098 48.36996704 42.03996277 49.03546143 C43.71129708 52.55054241 44.95996063 55.35512296 44.25 59.25 C42.76879883 61.29882813 42.76879883 61.29882813 40.70703125 63.28125 C39.96259766 64.00957031 39.21816406 64.73789063 38.45117188 65.48828125 C37.66291016 66.23464844 36.87464844 66.98101562 36.0625 67.75 C35.29357422 68.49636719 34.52464844 69.24273437 33.73242188 70.01171875 C32.24292527 71.45646653 30.74886357 72.89652624 29.24975586 74.33129883 C26.28494561 77.17593852 23.3627761 80.05479604 20.5625 83.0625 C19.25 84.25 19.25 84.25 17.25 84.25 C16.92 84.91 16.59 85.57 16.25 86.25 C14.25140851 81.87390472 12.25770928 77.49562729 10.26855469 73.11523438 C9.59086709 71.62471151 8.91183545 70.13479898 8.23144531 68.64550781 C7.2549389 66.50744274 6.28325234 64.36724508 5.3125 62.2265625 C5.00626709 61.55879791 4.70003418 60.89103333 4.38452148 60.20303345 C2.25 55.47774341 2.25 55.47774341 2.25 53.25 C1.26 53.25 0.27 53.25 -0.75 53.25 C-3.39635327 58.69967106 -6.01377333 64.16194748 -8.60522461 69.63793945 C-9.49093443 71.49911492 -10.38446136 73.3565911 -11.28588867 75.21020508 C-12.57979422 77.874296 -13.84506872 80.55039558 -15.10546875 83.23046875 C-15.51468063 84.05773972 -15.92389252 84.88501068 -16.34550476 85.73735046 C-17.35287828 87.91756654 -18.22232235 89.90701086 -18.75 92.25 C-17.12870032 96.44481909 -14.23160386 98.87929754 -10.875 101.8125 C-9.61042969 102.92818359 -9.61042969 102.92818359 -8.3203125 104.06640625 C-5.83437062 106.17832344 -3.30903459 108.22753718 -0.75 110.25 C2.495613 108.82925676 4.6126159 107.11237319 7.078125 104.58203125 C7.79613281 103.85306641 8.51414062 103.12410156 9.25390625 102.37304688 C10.36572266 101.22932617 10.36572266 101.22932617 11.5 100.0625 C12.9609716 98.56649622 14.42449938 97.07298431 15.890625 95.58203125 C16.53547852 94.91921143 17.18033203 94.2563916 17.84472656 93.57348633 C19.83469295 91.65118526 21.85869872 89.84983791 23.95581055 88.04858398 C28.64673588 83.97312117 32.97350552 79.58090217 37.31640625 75.140625 C39.03536195 73.39929985 40.75477666 71.65842772 42.47460938 69.91796875 C45.15406177 67.20133936 47.83030039 64.4818065 50.4987793 61.75439453 C53.09552969 59.10313357 55.70482763 56.46477007 58.31640625 53.828125 C59.10825821 53.01249084 59.90011017 52.19685669 60.71595764 51.35650635 C64.96163717 47.09096297 68.4074291 43.93494804 74.25 42.25 C77.625 43.125 77.625 43.125 80.25 45.25 C81.4375 48.375 81.4375 48.375 81.25 52.25 C78.6022457 58.12960252 74.85879832 63.54757217 71.25 68.875 C70.75508057 69.61153809 70.26016113 70.34807617 69.75024414 71.10693359 C67.92139992 73.82439779 66.08583945 76.53725659 64.25 79.25 C63.43983644 80.44914784 62.62978408 81.64837081 61.81982422 82.84765625 C43.66927921 109.71874623 43.66927921 109.71874623 34.796875 122.546875 C32.82811656 125.39763722 30.8876543 128.2665305 28.953125 131.140625 C28.37949219 131.98915039 27.80585938 132.83767578 27.21484375 133.71191406 C26.11408685 135.34110949 25.01737036 136.97304627 23.92578125 138.60839844 C13.40581743 154.14073687 13.40581743 154.14073687 5.25 156.25 C-2.13811193 156.78440231 -6.32987556 153.9044521 -11.75 149.25 C-15.67387628 145.54571062 -19.46760083 141.72278311 -23.25 137.875 C-24.27296535 136.84198014 -25.29639961 135.80942442 -26.3203125 134.77734375 C-28.80229814 132.2735512 -31.27789935 129.76355745 -33.75 127.25 C-36.94910948 133.26714857 -39.72160594 139.42282463 -42.34375 145.70703125 C-42.66037598 146.4628952 -42.97700195 147.21875916 -43.30322266 147.99752808 C-44.62258244 151.15146755 -45.93924643 154.30633298 -47.23876953 157.46850586 C-48.20016594 159.80281452 -49.17692708 162.13019706 -50.15625 164.45703125 C-50.44286499 165.16543655 -50.72947998 165.87384186 -51.02478027 166.60371399 C-53.26396817 171.87490374 -55.97103849 175.94447579 -61.3359375 178.46484375 C-69.64595584 180.61799976 -77.47543922 180.55760797 -85.75 178.25 C-90.30406797 175.14186406 -90.30406797 175.14186406 -91.75 172.25 C-92.71773876 164.32198634 -89.59761049 158.55886072 -86.25 151.5 C-85.66069251 150.22728645 -85.07317401 148.95374325 -84.48730469 147.67944336 C-83.55485326 145.65232014 -82.62109587 143.62588677 -81.68182373 141.60191345 C-78.36696862 134.45815009 -75.17733735 127.26046889 -71.99316406 120.05773926 C-70.30714571 116.246169 -68.61454954 112.43752421 -66.921875 108.62890625 C-66.58015259 107.85984955 -66.23843018 107.09079285 -65.88635254 106.2984314 C-61.6716751 96.81763193 -57.42996403 87.34892734 -53.18841553 77.88012695 C-49.23426716 69.05245144 -45.28859666 60.22118138 -41.3671875 51.37890625 C-41.00888855 50.57125824 -40.6505896 49.76361023 -40.28143311 48.93148804 C-38.58210716 45.10038859 -36.88439437 41.26858815 -35.18945312 37.43554688 C-33.38866365 33.3681128 -31.57611869 29.30612632 -29.75 25.25 C-29.44179321 24.5654071 -29.13358643 23.88081421 -28.81604004 23.17547607 C-27.89706993 21.14380155 -26.9696409 19.1162239 -26.0390625 17.08984375 C-25.5023291 15.91671631 -24.9655957 14.74358887 -24.41259766 13.53491211 C-21.37455672 7.53243916 -19.1355437 3.77761105 -12.75 1.25 C-8.49005311 0.0135187 -4.40737654 0.02880638 0 0 Z M0.25 50.25 C1.25 52.25 1.25 52.25 1.25 52.25 Z " fill="#6B7FFD" transform="translate(184.75,88.75)"/>
<path d="M0 0 C3.11504065 1.55752033 3.61178049 4.64400357 4.8125 7.75 C7.86863928 15.42027728 11.18302919 22.96170962 14.58349609 30.48443604 C17.06781917 35.98414353 19.53237977 41.49278423 22 47 C22.45213867 48.00675781 22.90427734 49.01351562 23.37011719 50.05078125 C24.53194628 52.6528417 25.67576251 55.2619013 26.8125 57.875 C27.1437085 58.61024902 27.47491699 59.34549805 27.81616211 60.10302734 C29.99843355 65.19001031 31.09590491 69.88088601 29.1875 75.3125 C28 77 28 77 25 79 C21.8125 79.125 21.8125 79.125 19 79 C18.67 79.66 18.34 80.32 18 81 C15.66418793 80.93917156 13.33410419 80.85186792 11 80.75 C9.700625 80.70359375 8.40125 80.6571875 7.0625 80.609375 C2.51196619 80.12990628 -1.29905075 78.71292242 -5 76 C-6.68916553 73.63880087 -7.75093384 71.84802466 -8.875 69.25 C-9.18816162 68.57477295 -9.50132324 67.8995459 -9.82397461 67.20385742 C-10.91443665 64.81561615 -11.95713985 62.40939752 -13 60 C-13.66394775 58.50750732 -13.66394775 58.50750732 -14.34130859 56.98486328 C-15.76879217 53.76922222 -17.17053242 50.54366149 -18.5625 47.3125 C-19.0167334 46.27319336 -19.4709668 45.23388672 -19.93896484 44.16308594 C-20.35227051 43.17727539 -20.76557617 42.19146484 -21.19140625 41.17578125 C-21.56467041 40.29833252 -21.93793457 39.42088379 -22.32250977 38.5168457 C-23.11280669 35.58092823 -22.88081303 33.88805043 -22 31 C-20.43359375 28.52734375 -20.43359375 28.52734375 -18.4375 25.9375 C-15.44876609 21.97034336 -12.60244112 17.96409631 -9.875 13.8125 C-6.74766741 9.07205711 -3.48261181 4.48518187 0 0 Z " fill="#6C7FFC" transform="translate(247,188)"/>
<path d="M0 0 C6.33491181 5.73868481 9.42791803 11.41877047 10 20 C9.46338555 23.91529799 8.70211049 27.60591781 6.91796875 31.1484375 C5.83409078 32.94619021 5.83409078 32.94619021 6.125 34.9375 C7.29824838 37.70301404 9.04968321 39.73511598 11 42 C10.34 42 9.68 42 9 42 C9 42.66 9 43.32 9 44 C8.34 44 7.68 44 7 44 C7 44.66 7 45.32 7 46 C6.01 46.33 5.02 46.66 4 47 C2.35 45.02 0.7 43.04 -1 41 C-1.8353125 41.23396484 -1.8353125 41.23396484 -2.6875 41.47265625 C-9.58497922 43.2319795 -15.26024798 43.68091971 -21.75 40.1875 C-24.56443344 38.2931698 -26.83398103 36.59922277 -29 34 C-29 33.34 -29 32.68 -29 32 C-29.66 31.67 -30.32 31.34 -31 31 C-33.53862008 23.38413975 -33.62210413 16.26496112 -30.375 8.875 C-27.49397675 3.57224706 -23.45183375 0.12375713 -18 -2.375 C-11.52197303 -3.72458895 -5.73506325 -3.39605706 0 0 Z M-21 11 C-23.41278847 15.05787152 -23.57713284 19.38293732 -23 24 C-21.83489285 28.0858552 -20.63828755 30.57447496 -17 33 C-14.71351152 33.24107326 -14.71351152 33.24107326 -12.3125 33.125 C-11.50425781 33.10695313 -10.69601562 33.08890625 -9.86328125 33.0703125 C-9.24839844 33.04710937 -8.63351562 33.02390625 -8 33 C-8.99 31.35 -9.98 29.7 -11 28 C-9.75 26.4375 -9.75 26.4375 -8 25 C-6 25.25 -6 25.25 -4 26 C-3.01 26.33 -2.02 26.66 -1 27 C1.22526721 22.54946559 0.24681428 17.77941353 -1.1875 13.25 C-3.15243349 9.72667098 -4.49646144 7.99064691 -8 6 C-14.08071925 5.00497321 -16.81330723 6.61857733 -21 11 Z " fill="#404042" transform="translate(312,296)"/>
<path d="M0 0 C0.7528125 0.00644531 1.505625 0.01289063 2.28125 0.01953125 C4.5 0.1875 4.5 0.1875 6.71875 0.76171875 C7.3065625 0.90222656 7.894375 1.04273438 8.5 1.1875 C8.83 0.8575 9.16 0.5275 9.5 0.1875 C13 0.0625 13 0.0625 16.5 0.1875 C18.95001307 2.63751307 17.67336879 8.57415566 17.68554688 12.00195312 C17.68546631 12.7200415 17.68538574 13.43812988 17.68530273 14.17797852 C17.68747367 16.34867411 17.70557982 18.51884862 17.72460938 20.68945312 C17.72754644 22.07812327 17.72952914 23.46679582 17.73046875 24.85546875 C17.73457764 26.11641357 17.73868652 27.3773584 17.74291992 28.67651367 C17.33057083 34.63630486 15.67887487 38.88922871 11.5 43.1875 C6.25432714 45.73896673 1.22937366 45.87738053 -4.5 45.1875 C-8.38670136 43.24414932 -11.43372778 41.07695359 -13.5 37.1875 C-13.1875 34.9375 -13.1875 34.9375 -12.5 33.1875 C-9.035 32.6925 -9.035 32.6925 -5.5 32.1875 C-5.17 32.8475 -4.84 33.5075 -4.5 34.1875 C-2.73173046 36.36032569 -2.73173046 36.36032569 -0.51953125 36.453125 C1.48888143 36.43890615 3.49584122 36.31892025 5.5 36.1875 C6.16 34.5375 6.82 32.8875 7.5 31.1875 C6.51 31.1875 5.52 31.1875 4.5 31.1875 C4.5 32.5075 4.5 33.8275 4.5 35.1875 C3.84 35.1875 3.18 35.1875 2.5 35.1875 C2.5 34.5275 2.5 33.8675 2.5 33.1875 C1.91992188 33.10113281 1.33984375 33.01476562 0.7421875 32.92578125 C-4.8876552 31.91315278 -8.65275403 30.69159284 -12.5 26.1875 C-14.96492704 19.82251061 -14.82077545 14.5168876 -12.5 8.1875 C-9.31424438 2.45313988 -6.65150678 -0.12528523 0 0 Z M-3.4375 9.6875 C-4.95186436 13.25071026 -5.06269015 16.37371121 -4.5 20.1875 C-3.56756129 22.76701684 -3.56756129 22.76701684 -1.5 24.1875 C1.59548485 24.63892487 3.54520554 24.71428315 6.3125 23.1875 C8.18889437 20.02725685 8.59830623 16.79674287 8.5 13.1875 C7.7236068 10.1129644 7.7236068 10.1129644 5.5 8.1875 C1.79013849 7.59127226 -0.3953673 7.33230049 -3.4375 9.6875 Z " fill="#38383A" transform="translate(181.5,304.8125)"/>
<path d="M0 0 C2.97 0.33 5.94 0.66 9 1 C9 6.61 9 12.22 9 18 C14.28 17.67 19.56 17.34 25 17 C24.9690625 14.4321875 24.9690625 14.4321875 24.9375 11.8125 C24.89210529 8.0447393 25.14701624 4.67387495 26 1 C28.97 1 31.94 1 35 1 C35.02464513 7.1055471 35.04283371 13.21106551 35.05493164 19.31665039 C35.05997288 21.39543156 35.06680574 23.47420916 35.07543945 25.55297852 C35.08751422 28.53402586 35.09323024 31.51502649 35.09765625 34.49609375 C35.10281754 35.43150497 35.10797882 36.3669162 35.11329651 37.33067322 C35.11337204 38.19149002 35.11344757 39.05230682 35.11352539 39.93920898 C35.115746 40.70087875 35.11796661 41.46254852 35.12025452 42.24729919 C35 44 35 44 34 45 C32.1875 45.1328125 32.1875 45.1328125 30 45.125 C29.278125 45.12757813 28.55625 45.13015625 27.8125 45.1328125 C26 45 26 45 25 44 C24.92674564 41.3013095 24.90777649 38.63497444 24.9375 35.9375 C24.958125 33.318125 24.97875 30.69875 25 28 C19.72 27.67 14.44 27.34 9 27 C9 32.94 9 38.88 9 45 C4.545 45.495 4.545 45.495 0 46 C0 30.82 0 15.64 0 0 Z " fill="#444447" transform="translate(239,293)"/>
<path d="M0 0 C3.3 0 6.6 0 10 0 C11.81608405 4.87418944 13.63082023 9.74887782 15.44433594 14.62402344 C16.06083195 16.28073519 16.67768925 17.93731255 17.29492188 19.59375 C18.18455624 21.98141384 19.0728692 24.3695658 19.9609375 26.7578125 C20.23497406 27.49242706 20.50901062 28.22704163 20.79135132 28.98391724 C21.53524296 30.98656951 22.26990345 32.99228338 23 35 C23.39268066 36.07749512 23.78536133 37.15499023 24.18994141 38.26513672 C25 41 25 41 25 45 C22.03 45 19.06 45 16 45 C14.68 42.03 13.36 39.06 12 36 C7.05 35.67 2.1 35.34 -3 35 C-3.474375 36.464375 -3.94875 37.92875 -4.4375 39.4375 C-5.875 43.875 -5.875 43.875 -7 45 C-9.67058851 45.14115161 -12.32432238 45.04247107 -15 45 C-16 43 -16 43 -14.96777344 39.47167969 C-14.4397129 37.95224862 -13.90293002 36.43583227 -13.359375 34.921875 C-13.07652649 34.11768127 -12.79367798 33.31348755 -12.5022583 32.48492432 C-11.90043901 30.77888128 -11.29492103 29.07413924 -10.68603516 27.37060547 C-9.75979503 24.77742303 -8.84574277 22.18019909 -7.93359375 19.58203125 C-7.34707725 17.92422317 -6.75985963 16.26666294 -6.171875 14.609375 C-5.89986267 13.83728699 -5.62785034 13.06519897 -5.34759521 12.26971436 C-3.82230141 8.018006 -2.11682512 4.00338794 0 0 Z M4 12 C3.32968281 13.9570868 2.66385317 15.91571113 2 17.875 C1.62875 18.96554687 1.2575 20.05609375 0.875 21.1796875 C-0.098772 23.82620854 -0.098772 23.82620854 0 26 C2.97 26 5.94 26 9 26 C8.21824485 21.15311808 6.60155722 16.6233633 5 12 C4.67 12 4.34 12 4 12 Z " fill="#414244" transform="translate(68,293)"/>
<path d="M0 0 C2.05078125 0.03255208 4.1015625 0.06510417 6.15234375 0.09765625 C6.15234375 0.75765625 6.15234375 1.41765625 6.15234375 2.09765625 C6.72210938 1.77667969 7.291875 1.45570313 7.87890625 1.125 C11.60347926 -0.55809742 15.15131171 -0.60148603 19.15234375 0.09765625 C22.22296343 1.81134234 24.55685101 3.90667077 26.15234375 7.09765625 C26.52104772 11.27508035 26.62052899 15.46997371 26.77734375 19.66015625 C26.8546875 21.42262695 26.8546875 21.42262695 26.93359375 23.22070312 C26.97742188 24.33638672 27.02125 25.45207031 27.06640625 26.6015625 C27.10717285 27.63095947 27.14793945 28.66035645 27.18994141 29.72094727 C27.15234375 32.09765625 27.15234375 32.09765625 26.15234375 33.09765625 C23.48175524 33.23880786 20.82802137 33.14012732 18.15234375 33.09765625 C17.23014161 27.24167269 16.83164231 21.44808188 16.546875 15.53125 C16.66185778 12.01745147 16.66185778 12.01745147 15.15234375 9.09765625 C12.19429802 8.76425154 12.19429802 8.76425154 9.15234375 9.09765625 C7.02953812 12.2818647 6.87214838 13.3030288 6.73828125 16.984375 C6.68027344 18.39106445 6.68027344 18.39106445 6.62109375 19.82617188 C6.59015625 20.80263672 6.55921875 21.77910156 6.52734375 22.78515625 C6.46933594 24.26725586 6.46933594 24.26725586 6.41015625 25.77929688 C6.31588976 28.21844235 6.23302785 30.65802372 6.15234375 33.09765625 C3.18234375 33.09765625 0.21234375 33.09765625 -2.84765625 33.09765625 C-2.87231017 28.5586792 -2.89049414 24.01974082 -2.90258789 19.48071289 C-2.90762765 17.93545859 -2.91445945 16.39020909 -2.9230957 14.8449707 C-2.93517701 12.62840596 -2.94088798 10.41190407 -2.9453125 8.1953125 C-2.95047379 7.50051285 -2.95563507 6.8057132 -2.96095276 6.08985901 C-2.96114902 4.42536295 -2.90954754 2.76100126 -2.84765625 1.09765625 C-1.84765625 0.09765625 -1.84765625 0.09765625 0 0 Z " fill="#434446" transform="translate(206.84765625,304.90234375)"/>
<path d="M0 0 C2.18464296 1.79911773 3.7117701 3.2954428 5.125 5.75 C5.125 7.07 5.125 8.39 5.125 9.75 C2.21017222 10.55967438 0.66386783 10.96845993 -2.1875 9.8125 C-2.744375 9.461875 -3.30125 9.11125 -3.875 8.75 C-3.875 8.09 -3.875 7.43 -3.875 6.75 C-6.515 6.75 -9.155 6.75 -11.875 6.75 C-11.545 7.74 -11.215 8.73 -10.875 9.75 C-8.01796514 10.78628279 -8.01796514 10.78628279 -4.625 11.5625 C2.86312417 13.72903098 2.86312417 13.72903098 5.5625 16.625 C7.125 19.75 7.125 19.75 6.75 22.8125 C4.33041568 27.18636396 1.82906686 29.91690064 -2.6875 32.125 C-7.81198197 33.12980039 -11.97040647 32.57808414 -16.75 30.5 C-19.23352361 28.45474527 -19.96770329 26.80181621 -20.875 23.75 C-21.535 23.75 -22.195 23.75 -22.875 23.75 C-23.205 22.76 -23.535 21.77 -23.875 20.75 C-19.24707669 18.62365686 -17.65011346 19.15829551 -12.875 20.75 C-12.25625 21.5234375 -12.25625 21.5234375 -11.625 22.3125 C-8.89623151 24.5539884 -6.27286009 23.9423317 -2.875 23.75 C-3.205 22.43 -3.535 21.11 -3.875 19.75 C-4.885625 19.8325 -5.89625 19.915 -6.9375 20 C-12.4168057 19.65210757 -15.94477361 17.68022639 -19.875 13.75 C-21.15202225 10.31186318 -20.85939271 8.6967516 -19.8125 5.125 C-15.64968146 -2.12636133 -7.33085999 -3.18733043 0 0 Z " fill="#424244" transform="translate(114.875,306.25)"/>
<path d="M0 0 C2.7911062 1.36066427 3.87832657 2.56007555 6 5 C6.875 8.3125 6.875 8.3125 7 11 C3.97878489 11.97110486 1.99536737 12.13617383 -1 11 C-1.33 10.34 -1.66 9.68 -2 9 C-3.98 9 -5.96 9 -8 9 C-8.33 9.99 -8.66 10.98 -9 12 C-8.33613281 12.10957031 -7.67226562 12.21914063 -6.98828125 12.33203125 C-0.93879687 13.41828903 3.54230503 14.54230503 8 19 C8.80063542 25.97696585 8.80063542 25.97696585 5.75 29.875 C0.93032305 33.59929583 -1.7751609 34.51873659 -8 34 C-11.96076302 33.25226717 -15.00488303 32.41323334 -17.39453125 29.01953125 C-18.38614418 27.03980932 -19.24845244 25.08158897 -20 23 C-15.375 20 -15.375 20 -12 20 C-11.525625 20.804375 -11.05125 21.60875 -10.5625 22.4375 C-9.26644144 25.1578895 -9.26644144 25.1578895 -6.8125 25.8125 C-5.9153125 25.9053125 -5.9153125 25.9053125 -5 26 C-4.67 25.34 -4.34 24.68 -4 24 C-4 24.66 -4 25.32 -4 26 C-3.34 25.67 -2.68 25.34 -2 25 C-1.67 24.01 -1.34 23.02 -1 22 C-2.65 21.67 -4.3 21.34 -6 21 C-6 21.66 -6 22.32 -6 23 C-8.31178273 21.84410864 -10.40151997 20.48118512 -12.5625 19.0625 C-13.36816406 18.53785156 -14.17382812 18.01320313 -15.00390625 17.47265625 C-17 16 -17 16 -18 14 C-18.41197049 9.36533199 -17.95567673 6.64533463 -15 3 C-10.29913651 -0.24583431 -5.56334995 -1.05306267 0 0 Z " fill="#3F3F40" transform="translate(142,305)"/>
<path d="M0 0 C0.79921875 0.01804687 1.5984375 0.03609375 2.421875 0.0546875 C3.02515625 0.07789063 3.6284375 0.10109375 4.25 0.125 C4.25 0.455 4.25 0.785 4.25 1.125 C2.93 1.455 1.61 1.785 0.25 2.125 C1.24 2.455 2.23 2.785 3.25 3.125 C2.26 4.115 1.27 5.105 0.25 6.125 C2.725 6.62 2.725 6.62 5.25 7.125 C5.25 7.455 5.25 7.785 5.25 8.125 C4.13625 8.228125 3.0225 8.33125 1.875 8.4375 C0.67875 8.664375 -0.5175 8.89125 -1.75 9.125 C-3.74825961 12.12238941 -4.02550398 12.75847508 -4 16.125 C-4.00515625 16.805625 -4.0103125 17.48625 -4.015625 18.1875 C-3.84917603 20.44916007 -3.84917603 20.44916007 -1.75 23.125 C0.22747122 23.48797936 0.22747122 23.48797936 2.375 23.3125 C3.65375 23.250625 4.9325 23.18875 6.25 23.125 C5.92 23.785 5.59 24.445 5.25 25.125 C2.1875 25.75 2.1875 25.75 -0.75 26.125 C1.725 27.115 1.725 27.115 4.25 28.125 C4.58 27.795 4.91 27.465 5.25 27.125 C6.57520503 26.44231862 7.90812182 25.7742959 9.25 25.125 C9.53571429 33.69642857 9.53571429 33.69642857 7.25 37.125 C6.59 36.795 5.93 36.465 5.25 36.125 C5.91 34.475 6.57 32.825 7.25 31.125 C6.26 31.125 5.27 31.125 4.25 31.125 C4.25 32.445 4.25 33.765 4.25 35.125 C3.59 35.125 2.93 35.125 2.25 35.125 C2.25 34.465 2.25 33.805 2.25 33.125 C1.66992188 33.03863281 1.08984375 32.95226562 0.4921875 32.86328125 C-5.1376552 31.85065278 -8.90275403 30.62909284 -12.75 26.125 C-15.21492704 19.76001061 -15.07077545 14.4543876 -12.75 8.125 C-9.47149892 2.22369805 -6.81018257 -0.20029949 0 0 Z " fill="#474648" transform="translate(181.75,304.875)"/>
<path d="M0 0 C5.74873396 2.34870454 9.49800147 7.20082092 12.375 12.5625 C14.30413406 20.08612283 14.43040385 26.66754096 10.5625 33.5625 C9 35 9 35 6 35 C6.33 33.68 6.66 32.36 7 31 C5.515 31.495 5.515 31.495 4 32 C2.31791365 31.02616054 0.65261839 30.02304948 -1 29 C-3.69254991 28.29329272 -3.69254991 28.29329272 -6 28 C-4.68 27.01 -3.36 26.02 -2 25 C0.475 26.98 0.475 26.98 3 29 C3.34961406 22.56451149 3.29470103 17.64805891 0 12 C-2.0351761 10.5181036 -2.0351761 10.5181036 -4 10 C-4 9.34 -4 8.68 -4 8 C-6.31 8 -8.62 8 -11 8 C-11 7.67 -11 7.34 -11 7 C-7.7 7 -4.4 7 -1 7 C-0.67 6.01 -0.34 5.02 0 4 C-2.77042109 1.22957891 -4.76533805 1.60203894 -8.625 1.375 C-9.81351562 1.30023438 -11.00203125 1.22546875 -12.2265625 1.1484375 C-13.14179688 1.09945313 -14.05703125 1.05046875 -15 1 C-9.98215462 -1.73799824 -5.43138469 -1.6315206 0 0 Z " fill="#434347" transform="translate(308,294)"/>
<path d="M0 0 C2.7911062 1.36066427 3.87832657 2.56007555 6 5 C6.875 8.3125 6.875 8.3125 7 11 C3.97878489 11.97110486 1.99536737 12.13617383 -1 11 C-1.33 10.34 -1.66 9.68 -2 9 C-3.98 9 -5.96 9 -8 9 C-8.33 9.99 -8.66 10.98 -9 12 C-8.31292969 12.12117188 -7.62585938 12.24234375 -6.91796875 12.3671875 C-6.01691406 12.53476562 -5.11585938 12.70234375 -4.1875 12.875 C-3.29417969 13.03742188 -2.40085938 13.19984375 -1.48046875 13.3671875 C1 14 1 14 4 16 C2.02 16.99 2.02 16.99 0 18 C0 17.01 0 16.02 0 15 C-1.32 15.33 -2.64 15.66 -4 16 C-4 15.34 -4 14.68 -4 14 C-4.99 14.495 -4.99 14.495 -6 15 C-6.65213292 17.02463255 -6.65213292 17.02463255 -7 19 C-6.01 19.66 -5.02 20.32 -4 21 C-4.66 21 -5.32 21 -6 21 C-6 21.66 -6 22.32 -6 23 C-8.31178273 21.84410864 -10.40151997 20.48118512 -12.5625 19.0625 C-13.36816406 18.53785156 -14.17382812 18.01320313 -15.00390625 17.47265625 C-17 16 -17 16 -18 14 C-18.41197049 9.36533199 -17.95567673 6.64533463 -15 3 C-10.29913651 -0.24583431 -5.56334995 -1.05306267 0 0 Z " fill="#454549" transform="translate(142,305)"/>
<path d="M0 0 C1.8125 0.0859375 1.8125 0.0859375 4 0.375 C5.0828125 0.51035156 5.0828125 0.51035156 6.1875 0.6484375 C8 1 8 1 9 2 C9.10081087 4.35231699 9.13972939 6.67461947 9.1328125 9.02734375 C9.13376923 9.73145889 9.13472595 10.43557404 9.13571167 11.161026 C9.13639341 12.65316863 9.13453952 14.14531421 9.13037109 15.63745117 C9.12503063 17.92438418 9.1303121 20.21112008 9.13671875 22.49804688 C9.13605781 23.94531293 9.13477632 25.39257887 9.1328125 26.83984375 C9.13483673 27.52634506 9.13686096 28.21284637 9.13894653 28.92015076 C9.11495764 33.77008473 9.11495764 33.77008473 8 36 C5.36 35.34 2.72 34.68 0 34 C-0.16725324 29.3188055 -0.32784864 24.63744899 -0.48217773 19.95581055 C-0.53566794 18.36199744 -0.59100255 16.76824515 -0.64819336 15.17456055 C-0.72990942 12.88864258 -0.80506897 10.60259054 -0.87890625 8.31640625 C-0.90594131 7.59973282 -0.93297638 6.88305939 -0.96083069 6.14466858 C-1.01297644 4.43052233 -1.01185628 2.71489824 -1 1 C-0.67 0.67 -0.34 0.34 0 0 Z " fill="#373738" transform="translate(154,304)"/>
<path d="M0 0 C0.61875 0.9590625 0.61875 0.9590625 1.25 1.9375 C2.96399307 4.38836869 2.96399307 4.38836869 6.6875 4.75 C7.780625 4.8325 8.87375 4.915 10 5 C10 8 10 8 9 10 C11.475 10.495 11.475 10.495 14 11 C11.43599223 13.56400777 10.31217985 13.32633634 6.75 13.375 C0.54697934 13.26133208 -2.63822641 11.43795983 -6.9375 7 C-8 5 -8 5 -7.6875 2.75 C-7.460625 2.1725 -7.23375 1.595 -7 1 C-4.50935112 0.31292445 -2.62113708 0 0 0 Z " fill="#4F5051" transform="translate(176,337)"/>
<path d="M0 0 C2.3431213 0.25561323 4.67843403 0.59270772 7 1 C7.33 1.66 7.66 2.32 8 3 C8.8971875 2.6596875 8.8971875 2.6596875 9.8125 2.3125 C12 2 12 2 13.75 2.9375 C15.73980117 6.22067194 15.1864396 9.20906137 15 13 C10.37207669 15.12634314 8.77511346 14.59170449 4 13 C4.66 12.67 5.32 12.34 6 12 C6.65213292 9.97536745 6.65213292 9.97536745 7 8 C6.443125 7.87625 5.88625 7.7525 5.3125 7.625 C2.77885636 6.94023145 0.42078968 6.00866237 -2 5 C-1.67 4.360625 -1.34 3.72125 -1 3.0625 C0.07271225 1.23205433 0.07271225 1.23205433 0 0 Z " fill="#363637" transform="translate(135,319)"/>
<path d="M0 0 C2.33294775 -0.04241723 4.66702567 -0.04092937 7 0 C9.45001307 2.45001307 8.17336879 8.38665566 8.18554688 11.81445312 C8.18542603 12.89158569 8.18542603 12.89158569 8.18530273 13.99047852 C8.18747367 16.16117411 8.20557982 18.33134862 8.22460938 20.50195312 C8.22754644 21.89062327 8.22952914 23.27929582 8.23046875 24.66796875 C8.23457764 25.92891357 8.23868652 27.1898584 8.24291992 28.48901367 C7.92557391 33.07570006 7.30764691 36.69235309 4 40 C4 38.35 4 36.7 4 35 C4.66 35 5.32 35 6 35 C6 24.11 6 13.22 6 2 C3.36 2.66 0.72 3.32 -2 4 C-1.34 2.68 -0.68 1.36 0 0 Z " fill="#5E5E63" transform="translate(191,305)"/>
<path d="M0 0 C5.7464165 1.5345544 5.7464165 1.5345544 7.625 3.48828125 C9.17608703 5.27180786 9.17608703 5.27180786 12.75 5.05078125 C13.843125 4.98890625 14.93625 4.92703125 16.0625 4.86328125 C13.47991077 7.44587048 11.33374388 7.59315591 7.83984375 8.30078125 C6.96005859 8.57921875 6.96005859 8.57921875 6.0625 8.86328125 C5.7325 9.52328125 5.4025 10.18328125 5.0625 10.86328125 C2.6875 10.67578125 2.6875 10.67578125 0.0625 9.86328125 C-1.25 7.30078125 -1.25 7.30078125 -1.9375 4.86328125 C-2.5975 4.86328125 -3.2575 4.86328125 -3.9375 4.86328125 C-4.2675 3.87328125 -4.5975 2.88328125 -4.9375 1.86328125 C-1.9375 -0.13671875 -1.9375 -0.13671875 0 0 Z " fill="#434345" transform="translate(95.9375,325.13671875)"/>
<path d="M0 0 C1.9375 2.1875 1.9375 2.1875 3 5 C2.4375 7.75 2.4375 7.75 1 10 C-1.41812636 11.20906318 -2.58231317 11.10740518 -5.1875 10.4375 C-7 9 -7 9 -7.9375 6.0625 C-8 3 -8 3 -6.875 1.125 C-4.3153573 -0.41078562 -2.9304214 -0.58608428 0 0 Z " fill="#414146" transform="translate(161,293)"/>
<path d="M0 0 C1.32 0.66 2.64 1.32 4 2 C3.01 2.495 3.01 2.495 2 3 C1.67 12.9 1.34 22.8 1 33 C3.31 33 5.62 33 8 33 C7.88184693 28.76396537 7.75760568 24.52816674 7.62768555 20.29248047 C7.58433769 18.8511238 7.54266248 17.40971582 7.50268555 15.96826172 C7.44497912 13.89795459 7.38128629 11.82790568 7.31640625 9.7578125 C7.27974854 8.5114502 7.24309082 7.26508789 7.20532227 5.98095703 C7.19710521 3.07363058 7.19710521 3.07363058 6 1 C6.99 1.33 7.98 1.66 9 2 C9.02468857 6.5206665 9.04285449 11.0412939 9.05493164 15.56201172 C9.05996552 17.10043013 9.06679308 18.63884375 9.07543945 20.17724609 C9.08754639 22.38640526 9.09323769 24.59550126 9.09765625 26.8046875 C9.10281754 27.49432587 9.10797882 28.18396423 9.11329651 28.89450073 C9.11387171 33.77225659 9.11387171 33.77225659 8 36 C5.36 35.34 2.72 34.68 0 34 C-0.16725324 29.3188055 -0.32784864 24.63744899 -0.48217773 19.95581055 C-0.53566794 18.36199744 -0.59100255 16.76824515 -0.64819336 15.17456055 C-0.72990942 12.88864258 -0.80506897 10.60259054 -0.87890625 8.31640625 C-0.90594131 7.59973282 -0.93297638 6.88305939 -0.96083069 6.14466858 C-1.01297644 4.43052233 -1.01185628 2.71489824 -1 1 C-0.67 0.67 -0.34 0.34 0 0 Z " fill="#737479" transform="translate(154,304)"/>
<path d="M0 0 C2 1 2 1 3.25 3.8125 C5.37363733 7.6805537 7.13817344 8.90255108 11 11 C14.61173733 11.51826029 14.61173733 11.51826029 18.375 11.3125 C20.34146484 11.25835937 20.34146484 11.25835937 22.34765625 11.203125 C29.37915215 11.01568839 29.37915215 11.01568839 36 9 C35.34 10.32 34.68 11.64 34 13 C32.02 13 30.04 13 28 13 C27.67 13.66 27.34 14.32 27 15 C9.26981964 14.53827655 9.26981964 14.53827655 4 10 C1.50138985 6.85704913 0 4.10697377 0 0 Z " fill="#6A77ED" transform="translate(238,254)"/>
<path d="M0 0 C2.28426334 2.10754383 3.78140582 4.10591032 5.1875 6.875 C5.53167969 7.53242188 5.87585938 8.18984375 6.23046875 8.8671875 C7.2352032 11.65188298 7.57422004 13.05118579 7 16 C5.0785777 18.53179246 2.82029158 20.64898487 0.5 22.8125 C-0.12003906 23.40998047 -0.74007812 24.00746094 -1.37890625 24.62304688 C-2.90825488 26.09357441 -4.45271466 27.5483573 -6 29 C-6.99 28.67 -7.98 28.34 -9 28 C-7.21427748 26.16052663 -5.42197551 24.32842259 -3.625 22.5 C-3.11710938 21.97535156 -2.60921875 21.45070312 -2.0859375 20.91015625 C-0.76167396 19.56846819 0.61605865 18.28004185 2 17 C2.66 17 3.32 17 4 17 C4.50042163 11.99578373 3.28077023 9.06718926 0.875 4.83203125 C0 3 0 3 0 0 Z " fill="#6777F6" transform="translate(222,132)"/>
<path d="M0 0 C1.38897867 4.166936 -0.32107632 6.6250821 -2.078125 10.40625 C-2.4053656 11.12735962 -2.7326062 11.84846924 -3.06976318 12.59143066 C-3.76462525 14.11665311 -4.46432447 15.63967966 -5.16845703 17.16064453 C-6.24337979 19.48568062 -7.30049633 21.8181988 -8.35546875 24.15234375 C-9.03280486 25.63329287 -9.71115724 27.11377769 -10.390625 28.59375 C-10.70638489 29.2906897 -11.02214478 29.98762939 -11.34747314 30.70568848 C-12.85890648 33.94856059 -14.19067091 36.71378736 -17 39 C-16.38121617 34.64408751 -14.78232061 31.3209996 -12.75 27.4375 C-9.92717375 21.95972643 -7.44661115 16.42647987 -5.1328125 10.7109375 C-3.59853756 7.03925885 -1.83321001 3.53062669 0 0 Z " fill="#6574F3" transform="translate(181,143)"/>
<path d="M0 0 C0.28571429 8.57142857 0.28571429 8.57142857 -2 12 C-2.66 11.67 -3.32 11.34 -4 11 C-3.34 9.35 -2.68 7.7 -2 6 C-2.99 6 -3.98 6 -5 6 C-5 7.32 -5 8.64 -5 10 C-5.66 10 -6.32 10 -7 10 C-7 9.34 -7 8.68 -7 8 C-8.670625 7.5978125 -8.670625 7.5978125 -10.375 7.1875 C-14 6 -14 6 -16 3 C-15.071875 3.020625 -14.14375 3.04125 -13.1875 3.0625 C-9.97713989 3.15769604 -9.97713989 3.15769604 -7 2 C-6.01 2.66 -5.02 3.32 -4 4 C-3.67 3.01 -3.34 2.02 -3 1 C-1 0 -1 0 0 0 Z " fill="#4B4A4C" transform="translate(191,330)"/>
<path d="M0 0 C1.0828125 0.9590625 1.0828125 0.9590625 2.1875 1.9375 C7.02663906 5.48620198 12.04709064 5.15767987 17.875 5.125 C18.89787109 5.13080078 18.89787109 5.13080078 19.94140625 5.13671875 C24.39055248 5.12824419 28.60958055 4.72218388 33 4 C29.91671276 7.64571097 26.82982836 8.05226421 22.25390625 8.77734375 C15.3848513 9.24737512 7.95379998 8.92432545 2.0859375 5.1015625 C0 3 0 3 0 0 Z " fill="#6C79EC" transform="translate(94,260)"/>
<path d="M0 0 C10.15317287 -0.63019694 10.15317287 -0.63019694 13.6875 2 C14.120625 2.66 14.55375 3.32 15 4 C14.67 4.66 14.34 5.32 14 6 C11.4375 6.625 11.4375 6.625 9 7 C8.67 6.34 8.34 5.68 8 5 C6.845 4.690625 5.69 4.38125 4.5 4.0625 C3.345 3.711875 2.19 3.36125 1 3 C0.67 2.01 0.34 1.02 0 0 Z " fill="#3C3B3E" transform="translate(104,306)"/>
<path d="M0 0 C0.99 0.33 1.98 0.66 3 1 C-0.99484183 5.91864901 -4.99704646 10.04193843 -10.203125 13.67578125 C-11.98342467 14.9877847 -13.47887519 16.39906309 -15 18 C-14.41889329 14.57245533 -13.31446376 12.95461339 -10.83984375 10.546875 C-10.21142578 9.928125 -9.58300781 9.309375 -8.93554688 8.671875 C-8.27619141 8.03765625 -7.61683594 7.4034375 -6.9375 6.75 C-6.27427734 6.1003125 -5.61105469 5.450625 -4.92773438 4.78125 C-3.29170683 3.1805324 -1.64909088 1.58723807 0 0 Z " fill="#6677F6" transform="translate(238,148)"/>
<path d="M0 0 C3.22096128 1.19599544 3.64782951 1.62799426 5.6875 4.6875 C5.0275 4.6875 4.3675 4.6875 3.6875 4.6875 C3.6875 5.3475 3.6875 6.0075 3.6875 6.6875 C1.2125 6.1925 1.2125 6.1925 -1.3125 5.6875 C-0.9825 5.0275 -0.6525 4.3675 -0.3125 3.6875 C-3.08292109 0.91707891 -5.07783805 1.28953894 -8.9375 1.0625 C-10.12601562 0.98773438 -11.31453125 0.91296875 -12.5390625 0.8359375 C-13.45429688 0.78695313 -14.36953125 0.73796875 -15.3125 0.6875 C-10.10341567 -2.15484819 -5.54549147 -1.91223844 0 0 Z " fill="#555559" transform="translate(308.3125,294.3125)"/>
<path d="M0 0 C0 0.66 0 1.32 0 2 C-1.546875 2.2475 -1.546875 2.2475 -3.125 2.5 C-8.19606706 3.96497493 -10.42266725 7.6103641 -13 12 C-14.47293268 14.95042552 -15.79263148 17.93186352 -17 21 C-18.15904779 18.16374187 -18.02282362 17.06315108 -16.9609375 14.125 C-16.43757812 13.09375 -15.91421875 12.0625 -15.375 11 C-14.86710938 9.96875 -14.35921875 8.9375 -13.8359375 7.875 C-10.29659372 2.33253825 -6.5791486 0 0 0 Z " fill="#6575EF" transform="translate(176,90)"/>
<path d="M0 0 C0.66 0 1.32 0 2 0 C1.4181647 3.58587626 0.45954187 6.3652239 -1.25 9.5625 C-4.18509099 15.2358683 -6.60974557 21.08030604 -9 27 C-9.99901872 24.3684385 -10.05052787 23.16113715 -9.19555664 20.43457031 C-8.77137451 19.49194336 -8.34719238 18.54931641 -7.91015625 17.578125 C-7.45576172 16.55332031 -7.00136719 15.52851563 -6.53320312 14.47265625 C-6.04787109 13.40917969 -5.56253906 12.34570312 -5.0625 11.25 C-4.58103516 10.17105469 -4.09957031 9.09210938 -3.60351562 7.98046875 C-2.41254609 5.31552703 -1.21108789 2.65584451 0 0 Z " fill="#6876F0" transform="translate(105,226)"/>
<path d="M0 0 C0.33 0.99 0.66 1.98 1 3 C-0.0480957 5.06884766 -0.0480957 5.06884766 -1.67578125 7.4140625 C-2.25650391 8.25710937 -2.83722656 9.10015625 -3.43554688 9.96875 C-4.05494141 10.8453125 -4.67433594 11.721875 -5.3125 12.625 C-5.92029297 13.50929687 -6.52808594 14.39359375 -7.15429688 15.3046875 C-11.71058385 21.85529192 -11.71058385 21.85529192 -14 23 C-12.72199484 19.55044666 -11.23881563 16.61909971 -9.1796875 13.57421875 C-8.64472656 12.77822266 -8.10976562 11.98222656 -7.55859375 11.16210938 C-7.00300781 10.34548828 -6.44742188 9.52886719 -5.875 8.6875 C-5.31167969 7.85154297 -4.74835938 7.01558594 -4.16796875 6.15429688 C-2.78279211 4.10000948 -1.39337781 2.04872962 0 0 Z " fill="#5F71F4" transform="translate(246,168)"/>
<path d="M0 0 C2.97 0 5.94 0 9 0 C9 0.99 9 1.98 9 3 C10.32 3 11.64 3 13 3 C13.33 2.34 13.66 1.68 14 1 C14.66 1.33 15.32 1.66 16 2 C16 3.32 16 4.64 16 6 C13.08517222 6.80967438 11.53886783 7.21845993 8.6875 6.0625 C8.130625 5.711875 7.57375 5.36125 7 5 C7 4.01 7 3.02 7 2 C4.69 1.67 2.38 1.34 0 1 C0 0.67 0 0.34 0 0 Z " fill="#47464B" transform="translate(104,310)"/>
<path d="M0 0 C0.33 1.32 0.66 2.64 1 4 C0.01 4.66 -0.98 5.32 -2 6 C-2.33 6.99 -2.66 7.98 -3 9 C-2.67 9.66 -2.34 10.32 -2 11 C-2.99 10.67 -3.98 10.34 -5 10 C-6.6875 6.4375 -6.6875 6.4375 -8 3 C-3.375 0 -3.375 0 0 0 Z " fill="#4F4E50" transform="translate(130,325)"/>
<path d="M0 0 C3.3 0 6.6 0 10 0 C9.67 0.66 9.34 1.32 9 2 C7.8553125 1.9690625 7.8553125 1.9690625 6.6875 1.9375 C3.89814214 1.87057159 3.89814214 1.87057159 1 3 C0.896875 3.763125 0.79375 4.52625 0.6875 5.3125 C-0.04364039 8.17059424 -0.76951913 9.15742885 -3 11 C-3.33 10.34 -3.66 9.68 -4 9 C-2.88378061 5.89253496 -1.4097791 2.99044051 0 0 Z " fill="#56575D" transform="translate(68,293)"/>
<path d="M0 0 C0.33 0.99 0.66 1.98 1 3 C-1.5375664 7.09415665 -4.73733575 10.34236237 -9 12.5625 C-12.54837058 13.07997071 -15.49678421 12.70064316 -19 12 C-19 11.67 -19 11.34 -19 11 C-18.1646875 11.01353516 -18.1646875 11.01353516 -17.3125 11.02734375 C-11.14780874 10.78783716 -8.0679951 9.00395494 -3.62890625 4.7890625 C-1.81912081 2.89118592 -1.81912081 2.89118592 0 0 Z " fill="#6273F5" transform="translate(203,231)"/>
<path d="M0 0 C-1.31898008 3.56124622 -3.47577448 5.38116081 -6.4140625 7.703125 C-8.24893168 9.15955376 -8.24893168 9.15955376 -10.6875 11.6875 C-13 14 -13 14 -16 16 C-14.33536962 11.71357676 -11.20924163 8.91382783 -8 5.75 C-7.4534375 5.19570312 -6.906875 4.64140625 -6.34375 4.0703125 C-2.2533867 0 -2.2533867 0 0 0 Z " fill="#6071F5" transform="translate(222,166)"/>
<path d="M0 0 C2.3125 -0.3125 2.3125 -0.3125 5 0 C6.9375 2.1875 6.9375 2.1875 8 5 C7.4375 7.75 7.4375 7.75 6 10 C4 10.9375 4 10.9375 2 11 C1.34 10.34 0.68 9.68 0 9 C1.32 9 2.64 9 4 9 C4 6.69 4 4.38 4 2 C2.35 2 0.7 2 -1 2 C-0.67 1.34 -0.34 0.68 0 0 Z " fill="#5A5A64" transform="translate(156,293)"/>
<path d="M0 0 C0.66 0 1.32 0 2 0 C0.5199653 4.16259759 -1.5446929 7.58509308 -4 11.25 C-5.051875 12.83554688 -5.051875 12.83554688 -6.125 14.453125 C-8 17 -8 17 -10 18 C-9.09416909 13.69303037 -6.93163436 10.39824446 -4.5625 6.75 C-4.15451172 6.1003125 -3.74652344 5.450625 -3.32617188 4.78125 C-2.27509398 3.14890716 -1.14328965 1.56913882 0 0 Z " fill="#6173F5" transform="translate(238,200)"/>
<path d="M0 0 C0.43570313 0.37511719 0.87140625 0.75023437 1.3203125 1.13671875 C1.91585937 1.64847656 2.51140625 2.16023437 3.125 2.6875 C4.07439453 3.50541016 4.07439453 3.50541016 5.04296875 4.33984375 C6.81640213 5.8442533 8.62132079 7.29792354 10.4375 8.75 C11.283125 9.4925 12.12875 10.235 13 11 C13 11.66 13 12.32 13 13 C9.05125638 11.66531083 6.61187264 10.0199164 3.6875 7.0625 C2.99011719 6.37285156 2.29273438 5.68320313 1.57421875 4.97265625 C0 3 0 3 0 0 Z " fill="#6575F5" transform="translate(168,230)"/>
<path d="M0 0 C0 0.99 0 1.98 0 3 C-4.56702141 5.67337839 -7.72036214 6.47139624 -13 6 C-16.4375 5 -16.4375 5 -19 4 C-15.58860997 2.90348177 -12.79344419 3.05784527 -9.25 3.4375 C-8.26515625 3.53933594 -7.2803125 3.64117187 -6.265625 3.74609375 C-5.14414063 3.87177734 -5.14414063 3.87177734 -4 4 C-3.67 3.01 -3.34 2.02 -3 1 C-2.01 0.67 -1.02 0.34 0 0 Z " fill="#58575B" transform="translate(147,333)"/>
<path d="M0 0 C0.99 0 1.98 0 3 0 C3 2.31 3 4.62 3 7 C-1.16138263 7.08159574 -4.9472484 6.98248524 -9 6 C-8.67 5.01 -8.34 4.02 -8 3 C-8 3.66 -8 4.32 -8 5 C-6.329375 4.7215625 -6.329375 4.7215625 -4.625 4.4375 C-1 4 -1 4 1 5 C0.67 3.35 0.34 1.7 0 0 Z " fill="#5E5F63" transform="translate(76,314)"/>
<path d="M0 0 C0.33 0.66 0.66 1.32 1 2 C0.06553465 4.03144641 -0.93224776 6.03533587 -2 8 C-5.37065593 6.87644802 -7.49187986 5.50812014 -10 3 C-8.72125 2.87625 -7.4425 2.7525 -6.125 2.625 C-2.65209064 2.30957601 -2.65209064 2.30957601 0 0 Z " fill="#313032" transform="translate(189,327)"/>
<path d="M0 0 C0.66 0 1.32 0 2 0 C0.75596862 3.73209414 -1.17243898 5.30708475 -4 8 C-4.556875 8.598125 -5.11375 9.19625 -5.6875 9.8125 C-7 11 -7 11 -9 11 C-9 8 -9 8 -7.28515625 6.2109375 C-6.18494141 5.30214844 -6.18494141 5.30214844 -5.0625 4.375 C-4.33160156 3.76398438 -3.60070312 3.15296875 -2.84765625 2.5234375 C-2.23792969 2.02070313 -1.62820312 1.51796875 -1 1 C-0.67 0.67 -0.34 0.34 0 0 Z " fill="#6777F6" transform="translate(211,162)"/>
<path d="M0 0 C2.75 -0.25 2.75 -0.25 6 0 C8.375 2 8.375 2 10 4 C8.35 4.66 6.7 5.32 5 6 C4.67 5.01 4.34 4.02 4 3 C3.01 3 2.02 3 1 3 C0.67 2.01 0.34 1.02 0 0 Z " fill="#343434" transform="translate(170,340)"/>
<path d="M0 0 C0.28571429 8.57142857 0.28571429 8.57142857 -2 12 C-2.66 11.67 -3.32 11.34 -4 11 C-3.34 9.35 -2.68 7.7 -2 6 C-2.99 5.67 -3.98 5.34 -5 5 C-2.74193548 0 -2.74193548 0 0 0 Z " fill="#5B5A5D" transform="translate(191,330)"/>
<path d="M0 0 C4.95 0.99 4.95 0.99 10 2 C10 2.33 10 2.66 10 3 C8.5199159 2.88637738 7.04089926 2.75877092 5.5625 2.625 C4.73878906 2.55539062 3.91507812 2.48578125 3.06640625 2.4140625 C2.38449219 2.27742188 1.70257813 2.14078125 1 2 C0.67 1.34 0.34 0.68 0 0 Z M0 3 C1.65 3 3.3 3 5 3 C4.67 3.99 4.34 4.98 4 6 C2.68 5.67 1.36 5.34 0 5 C0 4.34 0 3.68 0 3 Z " fill="#505051" transform="translate(105,317)"/>
<path d="M0 0 C0.99 0.33 1.98 0.66 3 1 C2.79375 1.5775 2.5875 2.155 2.375 2.75 C1.76871373 5.02757055 1.76871373 5.02757055 3 7 C4.24546405 9.49092811 3.7767578 10.41080733 3 13 C-1.07877462 5.9452954 -1.07877462 5.9452954 -0.75 2 C-0.5025 1.34 -0.255 0.68 0 0 Z " fill="#6677F6" transform="translate(225,219)"/>
<path d="M0 0 C1.6875 2.5 1.6875 2.5 3 5 C-0.3 4.34 -3.6 3.68 -7 3 C-7.33 3.66 -7.66 4.32 -8 5 C-7.67 3.68 -7.34 2.36 -7 1 C-4.50935112 0.31292445 -2.62113708 0 0 0 Z " fill="#5C5B5D" transform="translate(176,337)"/>
<path d="M0 0 C0.33 0 0.66 0 1 0 C1.33 5.28 1.66 10.56 2 16 C1.34 16 0.68 16 0 16 C0 14.68 0 13.36 0 12 C-0.66 12 -1.32 12 -2 12 C-2 10.68 -2 9.36 -2 8 C-1.34 8 -0.68 8 0 8 C0 5.36 0 2.72 0 0 Z " fill="#303031" transform="translate(266,321)"/>
<path d="M0 0 C1.98 0.99 3.96 1.98 6 3 C6 4.32 6 5.64 6 7 C3 7 3 7 1.3125 5.75 C0 4 0 4 0 0 Z " fill="#4D4D4F" transform="translate(169,340)"/>
<path d="M0 0 C1.65 0.33 3.3 0.66 5 1 C5.33 2.32 5.66 3.64 6 5 C5.34 4.67 4.68 4.34 4 4 C-0.14503661 3.75212983 -0.14503661 3.75212983 -4 5 C-4 4.01 -4 3.02 -4 2 C-2.68 2 -1.36 2 0 2 C0 1.34 0 0.68 0 0 Z " fill="#514F53" transform="translate(218,310)"/>
<path d="M0 0 C1.98567708 0.5859375 3.97135417 1.171875 5.95703125 1.7578125 C5.62703125 2.4178125 5.29703125 3.0778125 4.95703125 3.7578125 C4.21453125 3.7371875 3.47203125 3.7165625 2.70703125 3.6953125 C0.25240846 3.75109938 -1.70406136 4.0648029 -4.04296875 4.7578125 C-4.37296875 3.7678125 -4.70296875 2.7778125 -5.04296875 1.7578125 C-2.04296875 -0.2421875 -2.04296875 -0.2421875 0 0 Z " fill="#5D5D61" transform="translate(96.04296875,325.2421875)"/>
<path d="M0 0 C0.66 0 1.32 0 2 0 C1.1875 1.9375 1.1875 1.9375 0 4 C-0.99 4.33 -1.98 4.66 -3 5 C-3 5.66 -3 6.32 -3 7 C-4.32 7 -5.64 7 -7 7 C-7 6.34 -7 5.68 -7 5 C-5.35666496 3.96210419 -3.68756133 2.96432076 -2 2 C-1.34 1.34 -0.68 0.68 0 0 Z " fill="#6475F9" transform="translate(190,195)"/>
<path d="M0 0 C0.66 0.33 1.32 0.66 2 1 C2 2.98 2 4.96 2 7 C-0.31 6.67 -2.62 6.34 -5 6 C-4.67 5.34 -4.34 4.68 -4 4 C-3.01 4 -2.02 4 -1 4 C-0.67 2.68 -0.34 1.36 0 0 Z " fill="#343333" transform="translate(89,330)"/>
<path d="M0 0 C1.60080151 4.00200378 0.29279692 7.04556236 -1 11 C-1.66 11 -2.32 11 -3 11 C-2.44894091 7.0507432 -1.61064629 3.65079826 0 0 Z " fill="#3A383A" transform="translate(63,325)"/>
<path d="M0 0 C0.639375 0.144375 1.27875 0.28875 1.9375 0.4375 C5.93844788 1.17236798 9.95504896 1.58581111 14 2 C14 2.33 14 2.66 14 3 C12.04233719 3.08082094 10.08373272 3.13910778 8.125 3.1875 C6.48917969 3.23970703 6.48917969 3.23970703 4.8203125 3.29296875 C3.88960938 3.19628906 2.95890625 3.09960938 2 3 C1.34 2.01 0.68 1.02 0 0 Z " fill="#575759" transform="translate(290,327)"/>
<path d="M0 0 C0.33 1.32 0.66 2.64 1 4 C-2.00272755 4.96516243 -4.04215769 5.22393475 -7 4 C-7.33 3.01 -7.66 2.02 -8 1 C-5.36 1.33 -2.72 1.66 0 2 C0 1.34 0 0.68 0 0 Z " fill="#5E5F65" transform="translate(148,312)"/>
<path d="M0 0 C0.33 0.99 0.66 1.98 1 3 C-0.21484375 5.04296875 -0.21484375 5.04296875 -1.9375 7.1875 C-2.50339844 7.90292969 -3.06929687 8.61835938 -3.65234375 9.35546875 C-4.09707031 9.89816406 -4.54179687 10.44085938 -5 11 C-5.33 10.34 -5.66 9.68 -6 9 C-4.02 6.03 -2.04 3.06 0 0 Z " fill="#6374F6" transform="translate(214,215)"/>
<path d="M0 0 C0.66 0.33 1.32 0.66 2 1 C-1.75 5.875 -1.75 5.875 -4 7 C-6.125 6.0625 -6.125 6.0625 -8 5 C-6.865625 4.54625 -5.73125 4.0925 -4.5625 3.625 C-0.95278308 2.42904194 -0.95278308 2.42904194 0 0 Z " fill="#333332" transform="translate(190,339)"/>
<path d="M0 0 C2 1 2 1 4 3 C4.36933645 5.75372909 4.18336678 8.20365661 4 11 C3.67 11 3.34 11 3 11 C3 9.02 3 7.04 3 5 C2.01 4.67 1.02 4.34 0 4 C0 2.68 0 1.36 0 0 Z " fill="#535457" transform="translate(146,321)"/>
<path d="M0 0 C0.33 0 0.66 0 1 0 C1.32613618 4.67461851 0.70582788 7.16674383 -2 11 C-3.13643966 7.59068103 -2.86747764 6.99664544 -1.5625 3.8125 C-1.13130859 2.73935547 -1.13130859 2.73935547 -0.69140625 1.64453125 C-0.46324219 1.10183594 -0.23507813 0.55914062 0 0 Z " fill="#515265" transform="translate(63,305)"/>
<path d="M0 0 C0.33 0 0.66 0 1 0 C1.36923077 5.41538462 1.36923077 5.41538462 -0.5 8.375 C-0.995 8.91125 -1.49 9.4475 -2 10 C-2 7.69 -2 5.38 -2 3 C-1.34 3 -0.68 3 0 3 C0 2.01 0 1.02 0 0 Z " fill="#515154" transform="translate(320,317)"/>
<path d="M0 0 C2.31 0 4.62 0 7 0 C6 2 6 2 4.15234375 2.6328125 C3.42144531 2.79523438 2.69054687 2.95765625 1.9375 3.125 C0.83728516 3.37636719 0.83728516 3.37636719 -0.28515625 3.6328125 C-0.85105469 3.75398438 -1.41695312 3.87515625 -2 4 C-1.34 2.68 -0.68 1.36 0 0 Z " fill="#636570" transform="translate(191,305)"/>
<path d="M0 0 C0.99 0.33 1.98 0.66 3 1 C0.03 4.96 0.03 4.96 -3 9 C-3.33 8.01 -3.66 7.02 -4 6 C-2.0625 2.8125 -2.0625 2.8125 0 0 Z " fill="#6272F2" transform="translate(245,190)"/>
<path d="M0 0 C1.65 0 3.3 0 5 0 C5 0.99 5 1.98 5 3 C4.67 3.33 4.34 3.66 4 4 C3.67 4.66 3.34 5.32 3 6 C0 2.25 0 2.25 0 0 Z " fill="#292A2C" transform="translate(302,322)"/>
<path d="M0 0 C3.36720387 1.39332574 4.9859524 2.9789286 7 6 C3.75728494 5.4409112 2.06942576 4.5867822 0 2 C0 1.34 0 0.68 0 0 Z " fill="#6677F7" transform="translate(153,216)"/>
<path d="M0 0 C0.99 0.495 0.99 0.495 2 1 C1.01 1.495 1.01 1.495 0 2 C0 1.34 0 0.68 0 0 Z " fill="#000000" transform="translate(149,309)"/>
<path d="" fill="#000000" transform="translate(0,0)"/>
<path d="M0 0 C2 1 2 1 2 1 Z " fill="#7F7F7F" transform="translate(240,339)"/>
<path d="" fill="#3F3F3F" transform="translate(0,0)"/>
<path d="M0 0 C2 1 2 1 2 1 Z " fill="#7F7F7F" transform="translate(179,339)"/>
<path d="M0 0 C2 1 2 1 2 1 Z " fill="#2A2A2A" transform="translate(128,338)"/>
<path d="" fill="#000000" transform="translate(0,0)"/>
<path d="" fill="#BFBFFF" transform="translate(0,0)"/>
<path d="" fill="#000000" transform="translate(0,0)"/>
<path d="" fill="#7F7F7F" transform="translate(0,0)"/>
<path d="" fill="#000000" transform="translate(0,0)"/>
<path d="" fill="#000000" transform="translate(0,0)"/>
<path d="" fill="#000000" transform="translate(0,0)"/>
<path d="" fill="#7F7F7F" transform="translate(0,0)"/>
<path d="" fill="#555555" transform="translate(0,0)"/>
<path d="" fill="#7F7F7F" transform="translate(0,0)"/>
<path d="" fill="#7F7F7F" transform="translate(0,0)"/>
<path d="" fill="#000000" transform="translate(0,0)"/>
<path d="" fill="#7F7F7F" transform="translate(0,0)"/>
<path d="" fill="#000000" transform="translate(0,0)"/>
<path d="" fill="#000000" transform="translate(0,0)"/>
<path d="" fill="#7F7F7F" transform="translate(0,0)"/>
<path d="" fill="#000000" transform="translate(0,0)"/>
<path d="" fill="#7F7F7F" transform="translate(0,0)"/>
<path d="" fill="#7F7F7F" transform="translate(0,0)"/>
<path d="" fill="#000000" transform="translate(0,0)"/>
<path d="" fill="#555555" transform="translate(0,0)"/>
<path d="" fill="#666666" transform="translate(0,0)"/>
<path d="" fill="#7F7F7F" transform="translate(0,0)"/>
<path d="" fill="#7F7F7F" transform="translate(0,0)"/>
<path d="" fill="#7F7F7F" transform="translate(0,0)"/>
<path d="" fill="#000000" transform="translate(0,0)"/>
<path d="" fill="#000000" transform="translate(0,0)"/>
<path d="" fill="#555555" transform="translate(0,0)"/>
<path d="" fill="#7F7F7F" transform="translate(0,0)"/>
<path d="" fill="#000000" transform="translate(0,0)"/>
<path d="" fill="#7F7F7F" transform="translate(0,0)"/>
<path d="" fill="#7F7F7F" transform="translate(0,0)"/>
<path d="" fill="#7F7F7F" transform="translate(0,0)"/>
<path d="" fill="#000000" transform="translate(0,0)"/>
<path d="" fill="#7F7F7F" transform="translate(0,0)"/>
<path d="" fill="#000000" transform="translate(0,0)"/>
<path d="" fill="#000000" transform="translate(0,0)"/>
<path d="" fill="#555555" transform="translate(0,0)"/>
<path d="" fill="#000000" transform="translate(0,0)"/>
<path d="" fill="#555555" transform="translate(0,0)"/>
<path d="" fill="#000000" transform="translate(0,0)"/>
<path d="" fill="#7F7F7F" transform="translate(0,0)"/>
<path d="" fill="#7F7F7F" transform="translate(0,0)"/>
<path d="" fill="#0000FF" transform="translate(0,0)"/>
<path d="" fill="#FFFFFF" transform="translate(0,0)"/>
<path d="" fill="#9999CC" transform="translate(0,0)"/>
<path d="" fill="#FFFFFF" transform="translate(0,0)"/>
<path d="" fill="#00FFFF" transform="translate(0,0)"/>
<path d="" fill="#FFFFFF" transform="translate(0,0)"/>
<path d="" fill="#FFFFFF" transform="translate(0,0)"/>
<path d="" fill="#FFFFFF" transform="translate(0,0)"/>
<path d="" fill="#00FFFF" transform="translate(0,0)"/>
<path d="" fill="#7F7FFF" transform="translate(0,0)"/>
<path d="" fill="#FFFFFF" transform="translate(0,0)"/>
<path d="" fill="#FFFFFF" transform="translate(0,0)"/>
<path d="" fill="#7F7FFF" transform="translate(0,0)"/>
<path d="" fill="#7F7FFF" transform="translate(0,0)"/>
<path d="" fill="#FFFFFF" transform="translate(0,0)"/>
<path d="" fill="#FFFFFF" transform="translate(0,0)"/>
<path d="" fill="#FFFFFF" transform="translate(0,0)"/>
<path d="" fill="#FFFFFF" transform="translate(0,0)"/>
<path d="" fill="#FFFFFF" transform="translate(0,0)"/>
<path d="" fill="#00FFFF" transform="translate(0,0)"/>
<path d="" fill="#00FFFF" transform="translate(0,0)"/>
<path d="" fill="#FFFFFF" transform="translate(0,0)"/>
<path d="" fill="#9999FF" transform="translate(0,0)"/>
<path d="" fill="#FFFFFF" transform="translate(0,0)"/>
<path d="" fill="#7F7FFF" transform="translate(0,0)"/>
<path d="" fill="#AAAAFF" transform="translate(0,0)"/>
<path d="" fill="#7F7FFF" transform="translate(0,0)"/>
<path d="" fill="#FFFFFF" transform="translate(0,0)"/>
<path d="" fill="#FFFFFF" transform="translate(0,0)"/>
<path d="" fill="#FFFFFF" transform="translate(0,0)"/>
<path d="" fill="#7F7FFF" transform="translate(0,0)"/>
</svg>
